<svg width="5232" height="945" viewBox="0 0 5232 945" fill="none" xmlns="http://www.w3.org/2000/svg">
<g filter="url(#filter0_dd)">
<mask id="mask0" mask-type="alpha" maskUnits="userSpaceOnUse" x="3979" y="20" width="1245" height="907">
<path d="M4685.1 692.37C4747.89 751.167 4832.06 791.257 4913.55 791.257C5011.09 791.257 5065.87 747.156 5065.87 679.006C5065.87 606.85 5009.75 584.134 4929.59 550.728L4810.68 498.614C4723.84 462.533 4634.33 394.383 4634.33 266.097C4634.33 127.126 4757.25 20.2217 4926.92 20.2217C5029.79 20.2217 5128.66 62.9858 5196.8 131.136L5116.63 230.019C5061.85 183.252 5001.74 155.187 4926.92 155.187C4844.08 155.187 4790.64 193.941 4790.64 258.082C4790.64 326.232 4857.45 351.623 4929.59 381.019L5047.17 430.464C5151.37 474.558 5223.51 540.035 5223.51 666.98C5223.51 808.627 5105.94 926.221 4909.56 926.221C4791.98 926.221 4678.42 879.451 4595.59 797.937L4685.1 692.37Z" fill="white"/>
<path d="M4362.62 20.2217H4514.42V625.218C4514.42 785.559 4419.32 925.689 4236.89 925.689C4112.78 933.776 4006.36 848.244 3979.19 761.134C4001.8 757.707 4023.82 754.196 4051.3 745.549C4073.15 738.673 4105.83 723.903 4105.83 723.903C4130.43 763.127 4173.98 789.193 4223.6 789.193C4300.39 789.193 4362.64 726.761 4362.64 649.746L4362.62 20.2217Z" fill="white"/>
</mask>
<g mask="url(#mask0)">
<path fill-rule="evenodd" clip-rule="evenodd" d="M3958.82 72.292L4012.02 47.467C4066.83 24.1022 4174.84 -22.6272 4282.85 -34.3096C4390.86 -45.992 4498.87 -22.6272 4606.88 -28.4684C4713.28 -34.3096 4821.29 -69.3567 4929.3 -45.992C5037.31 -22.6272 5145.32 59.1493 5200.14 101.498L5253.33 142.386V247.527H5200.14C5145.32 247.527 5037.31 247.527 4929.3 247.527C4821.29 247.527 4713.28 247.527 4606.88 247.527C4498.87 247.527 4390.86 247.527 4282.85 247.527C4174.84 247.527 4066.83 247.527 4012.02 247.527H3958.82V72.292Z" fill="#FF5C5C"/>
<path fill-rule="evenodd" clip-rule="evenodd" d="M3958.82 76.645L4012.02 115.335C4066.83 154.026 4174.84 233.019 4282.85 233.019C4390.86 233.019 4498.87 154.026 4606.88 128.232C4713.28 102.439 4821.29 128.232 4929.3 141.129C5037.31 154.026 5145.32 154.026 5200.14 154.026H5253.33V426.47H5200.14C5145.32 426.47 5037.31 426.47 4929.3 426.47C4821.29 426.47 4713.28 426.47 4606.88 426.47C4498.87 426.47 4390.86 426.47 4282.85 426.47C4174.84 426.47 4066.83 426.47 4012.02 426.47H3958.82V76.645Z" fill="#F79454"/>
<path fill-rule="evenodd" clip-rule="evenodd" d="M3958.82 247.527L4012.02 265.951C4066.83 284.375 4174.84 321.223 4282.85 321.223C4390.86 321.223 4498.87 284.375 4606.88 275.163C4713.28 265.951 4821.29 284.375 4929.3 316.617C5037.31 348.859 5145.32 396.071 5200.14 419.101L5253.33 442.131V497.403H5200.14C5145.32 497.403 5037.31 497.403 4929.3 497.403C4821.29 497.403 4713.28 497.403 4606.88 497.403C4498.87 497.403 4390.86 497.403 4282.85 497.403C4174.84 497.403 4066.83 497.403 4012.02 497.403H3958.82V247.527Z" fill="#FFDB5C"/>
<path fill-rule="evenodd" clip-rule="evenodd" d="M3958.82 407.125L4012.76 420.44C4066.7 433.755 4174.57 460.384 4282.45 460.384C4390.32 460.384 4498.2 433.755 4606.08 440.412C4713.95 447.07 4821.83 487.014 4929.71 487.014C5037.58 487.014 5145.46 447.07 5199.4 427.098L5253.33 407.125V766.624H5199.4C5145.46 766.624 5037.58 766.624 4929.71 766.624C4821.83 766.624 4713.95 766.624 4606.08 766.624C4498.2 766.624 4390.32 766.624 4282.45 766.624C4174.57 766.624 4066.7 766.624 4012.76 766.624H3958.82V407.125Z" fill="#5CFF9D"/>
<path fill-rule="evenodd" clip-rule="evenodd" d="M5253.34 600.577L5200.14 613.169C5145.33 625.76 5037.31 650.943 4929.3 644.648C4821.29 638.352 4713.28 600.577 4605.27 600.577C4498.87 600.577 4390.86 638.352 4282.85 657.239C4174.84 677.7 4066.83 677.7 4012.02 677.7H3958.82V866.573H4012.02C4066.83 866.573 4174.84 866.573 4282.85 866.573C4390.86 866.573 4498.87 866.573 4605.27 866.573C4713.28 866.573 4821.29 866.573 4929.3 866.573C5037.31 866.573 5145.33 866.573 5200.14 866.573H5253.34V600.577Z" fill="#5C6CFF"/>
<path fill-rule="evenodd" clip-rule="evenodd" d="M3958.82 760.175L4090.21 692.467C4132.12 760.175 4174.84 794.363 4282.85 798.637C4390.86 802.91 4498.87 772.266 4606.88 772.266C4713.28 772.266 4821.29 802.91 4929.3 798.637C5037.31 794.363 5179.98 760.175 5229.96 740.024L5253.33 760.175V940.73H5200.14C5145.32 940.73 5037.31 940.73 4929.3 940.73C4821.29 940.73 4713.28 940.73 4606.88 940.73C4498.87 940.73 4390.86 940.73 4282.85 940.73C4174.84 940.73 4066.83 940.73 4012.02 940.73H3958.82V760.175Z" fill="#B75CFF"/>
</g>
<path fill-rule="evenodd" clip-rule="evenodd" d="M4264.21 348.906C4264.21 282.978 4251.78 225.648 4226.94 175.965C4201.14 127.234 4163.88 89.0164 4114.19 61.3076C4064.51 33.5989 4004.32 20.2217 3932.65 20.2217H3667.03V689.056H3892.98H3920.23C3986.6 689.056 4037.45 678.548 4084.65 654.747C4084.59 653.088 4084.57 651.421 4084.57 649.746C4084.57 572.732 4146.82 510.3 4223.61 510.3C4225.89 510.3 4228.16 510.355 4230.41 510.464C4254.5 461.424 4264.21 412.805 4264.21 348.906ZM3827.55 163.544V545.734H3918.32C3976.61 545.734 4020.56 528.534 4050.18 493.183C4079.8 458.785 4095.08 411.967 4095.08 351.772C4095.08 292.533 4080.75 246.67 4052.09 213.229C4023.42 179.786 3980.43 163.544 3924.05 163.544H3827.55Z" fill="#5865F2"/>
<path d="M4311.87 649.747C4311.87 698.271 4272.53 737.606 4224.01 737.606C4175.49 737.606 4136.15 698.271 4136.15 649.747C4136.15 601.222 4175.49 561.887 4224.01 561.887C4272.53 561.887 4311.87 601.222 4311.87 649.747Z" fill="#5865F2"/>
<path d="M261.386 689.469C335.011 689.469 398.119 675.125 449.752 645.481C501.386 616.793 540.589 576.63 566.405 524.991C592.222 474.309 605.609 415.02 605.609 349.038C605.609 283.055 593.178 225.679 568.318 175.953C542.501 127.184 505.21 88.933 455.489 61.2012C405.768 33.4694 345.529 20.0816 273.816 20.0816H8V689.469H261.386ZM168.637 546.029V163.522H265.211C321.625 163.522 364.653 179.778 393.338 213.248C422.023 246.717 436.366 292.618 436.366 351.907C436.366 412.152 421.067 459.009 391.426 493.434C361.784 528.816 317.8 546.029 259.474 546.029H168.637ZM878.299 20.0816H717.662V689.469H878.299V20.0816ZM1237.12 709.551C1316.48 709.551 1379.59 690.426 1425.48 651.219C1470.42 612.968 1493.37 560.373 1493.37 494.391C1493.37 444.665 1479.03 403.545 1450.34 371.032C1421.66 339.475 1375.76 312.7 1311.7 292.618L1242.85 270.624C1217.04 260.105 1198.87 249.586 1187.4 239.067C1174.97 228.548 1169.23 216.117 1169.23 199.86C1169.23 159.697 1200.78 139.615 1264.85 139.615C1332.74 139.615 1397.76 161.609 1460.86 206.554V59.2886C1393.93 20.0816 1323.17 0 1247.64 0C1170.19 0 1108.99 18.1691 1065.01 54.5072C1021.02 91.8017 999.031 141.528 999.031 205.598C999.031 253.411 1012.42 292.618 1038.23 323.219C1064.05 354.775 1106.12 379.638 1163.49 399.72L1241.9 425.539C1269.63 437.014 1288.75 447.534 1299.27 458.052C1309.79 468.571 1314.57 482.915 1314.57 499.172C1314.57 545.073 1283.01 568.023 1218.95 568.023C1180.7 568.023 1142.46 560.373 1103.25 546.029C1064.05 531.685 1029.63 513.516 999.031 489.609V638.787C1070.74 685.644 1150.11 709.551 1237.12 709.551ZM1921.29 708.595C1962.43 708.595 2002.57 702.857 2039.85 692.338C2077.17 681.819 2109.67 667.475 2137.39 649.306V502.997C2112.53 520.21 2084.8 533.598 2053.26 544.116C2021.69 554.635 1990.15 560.373 1957.64 560.373C1912.69 560.373 1872.53 551.767 1839.06 533.598C1805.6 516.385 1779.78 492.478 1761.61 460.921C1743.45 429.364 1733.89 393.982 1733.89 353.819C1733.89 313.656 1743.45 278.274 1761.61 246.717C1779.78 215.16 1805.6 191.254 1839.06 174.041C1872.53 156.828 1910.77 148.221 1955.72 148.221C2020.73 148.221 2080.02 168.303 2134.54 207.51V55.4635C2072.39 19.1253 2002.57 0.956277 1923.22 0.956277C1851.49 0.956277 1788.39 16.2564 1734.84 46.857C1680.34 77.4576 1639.22 119.533 1609.58 174.041C1579.94 228.548 1565.6 289.749 1565.6 358.601C1565.6 423.627 1579.94 482.915 1607.67 535.51C1635.4 589.061 1676.51 631.137 1730.06 661.737C1783.61 693.294 1847.67 708.595 1921.29 708.595ZM2561.67 708.595C2629.56 708.595 2689.82 693.294 2743.34 663.65C2795.93 634.006 2838.02 591.93 2867.64 538.379C2897.29 484.828 2911.63 423.627 2911.63 355.732C2911.63 287.837 2897.29 226.635 2867.64 172.128C2838.02 118.577 2795.93 76.5013 2743.34 45.9007C2689.82 16.2564 2629.56 0.956277 2561.67 0.956277C2494.73 0.956277 2434.51 16.2564 2381.92 45.9007C2329.33 76.5013 2288.22 118.577 2258.58 172.128C2228.93 226.635 2213.62 287.837 2213.62 355.732C2213.62 423.627 2228.93 484.828 2258.58 538.379C2288.22 591.93 2329.33 634.006 2381.92 663.65C2434.51 693.294 2494.73 708.595 2561.67 708.595ZM2561.67 556.548C2525.34 556.548 2493.8 547.942 2467.01 530.729C2439.29 513.516 2418.24 489.609 2403.9 459.009C2389.56 429.364 2381.92 394.939 2381.92 356.688C2381.92 318.437 2389.56 284.012 2403.9 252.455C2418.24 221.854 2439.29 197.948 2467.01 179.778C2493.8 161.609 2525.34 153.003 2561.67 153.003C2598.98 153.003 2630.52 161.609 2658.25 179.778C2685.97 197.948 2707.02 221.854 2721.36 252.455C2735.7 284.012 2742.41 318.437 2742.41 356.688C2742.41 394.939 2734.74 429.364 2720.4 459.009C2706.05 489.609 2685.04 513.516 2658.25 530.729C2630.52 547.942 2598.98 556.548 2561.67 556.548ZM3373.13 419.802C3431.46 413.108 3475.42 392.07 3507 357.644C3538.54 323.219 3553.84 279.23 3553.84 226.635C3553.84 162.565 3532.8 112.84 3489.77 75.5452C3446.74 38.2507 3388.44 20.0816 3315.76 20.0816H3021.24V689.469H3181.9V407.37L3379.81 689.469H3572L3373.13 419.802ZM3181.9 154.915H3285.15C3316.72 154.915 3340.63 162.566 3356.87 176.91C3373.13 192.21 3381.73 214.204 3381.73 241.936C3381.73 271.58 3372.17 293.574 3354.01 309.831C3335.85 326.087 3309.06 333.738 3273.7 333.738H3181.9V154.915Z" fill="#5865F2"/>
</g>
<defs>
<filter id="filter0_dd" x="0" y="0" width="5232" height="945" filterUnits="userSpaceOnUse" color-interpolation-filters="sRGB">
<feFlood flood-opacity="0" result="BackgroundImageFix"/>
<feColorMatrix in="SourceAlpha" type="matrix" values="0 0 0 0 0 0 0 0 0 0 0 0 0 0 0 0 0 0 127 0"/>
<feOffset dy="10"/>
<feGaussianBlur stdDeviation="4"/>
<feColorMatrix type="matrix" values="0 0 0 0 0 0 0 0 0 0 0 0 0 0 0 0 0 0 0.04 0"/>
<feBlend mode="normal" in2="BackgroundImageFix" result="effect1_dropShadow"/>
<feColorMatrix in="SourceAlpha" type="matrix" values="0 0 0 0 0 0 0 0 0 0 0 0 0 0 0 0 0 0 127 0"/>
<feOffset dy="4"/>
<feGaussianBlur stdDeviation="1.5"/>
<feColorMatrix type="matrix" values="0 0 0 0 0 0 0 0 0 0 0 0 0 0 0 0 0 0 0.1 0"/>
<feBlend mode="normal" in2="effect1_dropShadow" result="effect2_dropShadow"/>
<feBlend mode="normal" in="SourceGraphic" in2="effect2_dropShadow" result="shape"/>
</filter>
</defs>
</svg>
