<svg width="180" height="180" viewBox="0 0 180 180" fill="none" xmlns="http://www.w3.org/2000/svg">
    <path fill="#090a16" d="M0 0h180v180H0z" />
    <mask id="a" mask-type="alpha" maskUnits="userSpaceOnUse" x="3979" y="20" width="1245" height="907">
        <path fill="#ffffff"
            d="M4685.1 692.37c62.79 58.797 146.96 98.887 228.45 98.887 97.54 0 152.32-44.101 152.32-112.251 0-72.156-56.12-94.872-136.28-128.278l-118.91-52.114c-86.84-36.081-176.35-104.231-176.35-232.517 0-138.971 122.92-245.8753 292.59-245.8753 102.87 0 201.74 42.7641 269.88 110.9143l-80.17 98.883c-54.78-46.767-114.89-74.832-189.71-74.832-82.84 0-136.28 38.754-136.28 102.895 0 68.15 66.81 93.541 138.95 122.937l117.58 49.445c104.2 44.094 176.34 109.571 176.34 236.516 0 141.647-117.57 259.241-313.95 259.241-117.58 0-231.14-46.77-313.97-128.284zM4362.62 20.2217h151.8V625.218c0 160.341-95.1 300.471-277.53 300.471-124.11 8.087-230.53-77.445-257.7-164.555 22.61-3.427 44.63-6.938 72.11-15.585 21.85-6.876 54.53-21.646 54.53-21.646 24.6 39.224 68.15 65.29 117.77 65.29 76.79 0 139.04-62.432 139.04-139.447z" />
    </mask>
    <g mask="url(#a)" fill-rule="evenodd" clip-rule="evenodd" transform="translate(-273.5056 51.303) scale(.08177)">
        <path fill="#ff5c5c"
            d="m3958.82 72.292 53.2-24.825c54.81-23.3648 162.82-70.0942 270.83-81.7766 108.01-11.6824 216.02 11.6824 324.03 5.8412 106.4-5.8412 214.41-40.8883 322.42-17.5236 108.01 23.3648 216.02 105.1413 270.84 147.49l53.19 40.888v105.141H3958.82z" />
        <path fill="#f79454"
            d="m3958.82 76.645 53.2 38.69c54.81 38.691 162.82 117.684 270.83 117.684 108.01 0 216.02-78.993 324.03-104.787 106.4-25.793 214.41 0 322.42 12.897 108.01 12.897 216.02 12.897 270.84 12.897h53.19V426.47H3958.82z" />
        <path fill="#ffdb5c"
            d="m3958.82 247.527 53.2 18.424c54.81 18.424 162.82 55.272 270.83 55.272 108.01 0 216.02-36.848 324.03-46.06 106.4-9.212 214.41 9.212 322.42 41.454 108.01 32.242 216.02 79.454 270.84 102.484l53.19 23.03v55.272H3958.82z" />
        <path fill="#5cff9d"
            d="m3958.82 407.125 53.94 13.315c53.94 13.315 161.81 39.944 269.69 39.944 107.87 0 215.75-26.629 323.63-19.972 107.87 6.658 215.75 46.602 323.63 46.602 107.87 0 215.75-39.944 269.69-59.916l53.93-19.973v359.499H3958.82z" />
        <path fill="#5c6cff"
            d="m5253.34 600.577-53.2 12.592c-54.81 12.591-162.83 37.774-270.84 31.479-108.01-6.296-216.02-44.071-324.03-44.071-106.4 0-214.41 37.775-322.42 56.662-108.01 20.461-216.02 20.461-270.83 20.461h-53.2v188.873h1294.52z" />
        <path fill="#b75cff"
            d="m3958.82 760.175 131.39-67.708c41.91 67.708 84.63 101.896 192.64 106.17 108.01 4.273 216.02-26.371 324.03-26.371 106.4 0 214.41 30.644 322.42 26.371 108.01-4.274 250.68-38.462 300.66-58.613l23.37 20.151V940.73H3958.82z" />
    </g>
    <path fill="#ffffff"
        d="M26.3605 52.9566v54.693h20.7052c5.4273 0 9.5855-.8593 13.4452-2.8056 0-.1357-.01-.272-.01-.409 0-6.2976 5.0903-11.4029 11.3697-11.4029.1864 0 .372.005.556.0134 1.97-4.0102 2.764-7.986 2.764-13.2112 0-5.3912-1.0164-10.0793-3.0477-14.142-2.1097-3.985-5.1566-7.1103-9.22-9.3761-4.0625-2.2659-8.9843-3.3596-14.8451-3.3596zm13.1265 11.72h7.891c4.6105 0 8.1259 1.328 10.4703 4.0628 2.3437 2.7346 3.5155 6.485 3.5155 11.3292 0 4.9224-1.2495 8.751-3.6717 11.5638-2.4221 2.8908-6.016 4.2973-10.7826 4.2973H39.487zm32.4198 32.574c-3.9676-.0001-7.1845 3.2164-7.1845 7.1845 0 3.968 3.2169 7.1846 7.1845 7.1846 3.9677 0 7.1846-3.2166 7.1846-7.1846 0-3.968-3.217-7.1846-7.1846-7.1846z" />
</svg>
